<?xml version="1.0" standalone="no"?>
<!DOCTYPE svg PUBLIC "-//W3C//DTD SVG 20010904//EN"
 "http://www.w3.org/TR/2001/REC-SVG-20010904/DTD/svg10.dtd">
<svg version="1.0" xmlns="http://www.w3.org/2000/svg"
 width="1024.000000pt" height="1024.000000pt" viewBox="0 0 1024.000000 1024.000000"
 preserveAspectRatio="xMidYMid meet">

<g transform="translate(0.000000,1024.000000) scale(0.100000,-0.100000)"
fill="#000000" stroke="none">
<path d="M6180 9103 c-30 -1 -122 -10 -205 -19 -1100 -115 -1930 -577 -2114
-1178 -37 -121 -43 -224 -39 -736 4 -461 6 -489 27 -570 139 -536 792 -976
1721 -1159 545 -107 1190 -113 1755 -16 568 98 1080 312 1404 586 l73 62 -4
-119 c-3 -99 -8 -129 -30 -182 -116 -281 -417 -514 -889 -690 -203 -76 -507
-153 -696 -178 -63 -8 -61 7 -31 -201 13 -94 26 -153 33 -153 31 0 307 54 430
84 465 114 889 316 1135 540 l45 41 3 -94 c5 -181 -72 -339 -244 -500 -296
-276 -792 -481 -1389 -572 -71 -11 -130 -21 -132 -23 -1 -1 6 -74 17 -162 11
-87 20 -164 20 -171 0 -13 4 -13 230 24 262 42 563 126 805 223 210 84 499
254 627 369 31 28 59 51 63 51 4 0 5 -53 3 -117 -3 -98 -8 -128 -30 -181 -45
-108 -90 -173 -188 -272 -270 -272 -764 -486 -1349 -584 -85 -15 -157 -28
-159 -31 -4 -4 22 -236 34 -311 l6 -31 116 18 c620 95 1162 314 1507 609 l60
51 3 -97 c2 -67 -2 -114 -14 -153 -117 -405 -712 -758 -1522 -902 -117 -21
-132 -26 -132 -44 0 -11 10 -89 22 -173 l21 -153 46 6 c244 34 614 130 843
220 591 234 963 573 1064 972 l24 96 0 2241 c0 1888 -2 2251 -14 2306 -144
671 -1067 1180 -2301 1270 -126 9 -515 11 -655 3z m800 -367 c773 -92 1393
-349 1670 -692 104 -129 150 -249 150 -390 0 -171 -80 -327 -248 -486 -497
-469 -1617 -713 -2647 -577 -894 118 -1574 482 -1707 914 -26 85 -29 215 -6
291 52 169 184 332 378 469 371 260 914 427 1575 485 152 13 677 4 835 -14z
m-2757 -1854 c504 -455 1519 -727 2507 -673 859 47 1574 282 2009 659 l63 56
-4 -120 c-4 -130 -20 -184 -89 -302 -49 -82 -216 -245 -329 -320 -843 -559
-2426 -637 -3471 -172 -220 99 -402 222 -534 362 -140 148 -192 264 -202 446
-3 56 -3 102 1 102 3 0 25 -17 49 -38z"/>
<path d="M4834 5345 c-310 -39 -519 -109 -719 -240 -247 -162 -403 -374 -505
-684 -40 -122 -90 -343 -90 -398 0 -87 70 -186 151 -217 31 -11 192 -28 540
-56 449 -36 501 -38 543 -26 101 31 155 97 185 227 43 186 86 261 177 305 49
24 69 28 138 27 87 0 120 -10 178 -49 77 -54 115 -145 97 -238 -31 -170 -185
-332 -659 -691 -740 -561 -1051 -895 -1256 -1345 -98 -216 -183 -530 -170
-628 11 -83 64 -154 141 -189 38 -17 121 -18 1565 -21 839 -2 1553 0 1587 3
83 9 157 53 198 119 l30 49 3 421 c3 373 1 426 -14 465 -21 55 -66 106 -118
134 -41 22 -48 22 -635 27 l-593 5 178 125 c393 275 589 437 756 625 204 228
337 488 383 750 20 116 21 342 1 455 -43 241 -163 468 -340 646 -212 212 -462
327 -840 386 -172 27 -737 35 -912 13z m611 -339 c430 -15 704 -113 906 -322
164 -171 240 -362 240 -607 0 -445 -242 -780 -895 -1240 -408 -288 -449 -321
-775 -639 l-215 -208 957 0 957 0 0 -260 0 -260 -1401 0 -1401 0 7 36 c14 76
68 224 126 344 180 374 453 658 1124 1170 496 379 649 532 746 745 62 138 79
294 45 424 -51 198 -228 371 -436 427 -87 23 -262 23 -349 0 -220 -59 -379
-224 -451 -466 -13 -41 -24 -76 -25 -78 -2 -3 -607 45 -672 54 l-41 5 13 57
c111 471 385 716 890 798 95 15 390 32 465 27 19 -1 103 -5 185 -7z"/>
<path d="M1680 4293 c-36 -13 -88 -59 -261 -230 -139 -137 -226 -232 -243
-264 -36 -65 -43 -131 -21 -204 15 -55 28 -70 160 -205 l144 -145 -144 -145
c-132 -135 -144 -150 -160 -205 -20 -69 -15 -137 15 -199 12 -26 101 -122 242
-262 201 -200 228 -223 277 -239 66 -22 150 -16 207 13 21 11 100 82 174 156
l134 135 146 -143 c125 -124 152 -145 199 -161 66 -22 150 -16 207 13 21 11
137 119 256 239 240 241 257 266 258 368 0 95 -28 140 -179 290 -72 71 -131
134 -131 140 0 6 59 69 131 140 151 150 179 195 179 290 0 104 -22 134 -266
376 -121 119 -234 224 -253 234 -53 27 -139 31 -202 10 -47 -16 -74 -37 -199
-161 l-146 -143 -134 135 c-74 74 -153 145 -175 156 -53 28 -155 33 -215 11z
m245 -513 c155 -154 186 -172 281 -172 99 -1 139 24 296 180 l138 136 120
-119 c66 -66 120 -124 120 -130 0 -6 -59 -69 -131 -140 -148 -147 -179 -195
-179 -284 0 -104 12 -123 167 -282 79 -80 143 -150 143 -155 0 -5 -54 -63
-120 -129 l-119 -119 -140 137 c-155 153 -193 176 -285 177 -109 0 -127 -10
-289 -169 l-148 -145 -124 124 -125 124 135 136 c153 155 179 198 179 295 0
96 -25 138 -178 294 l-135 137 122 122 c67 67 124 122 127 122 2 0 68 -63 145
-140z"/>
</g>
</svg>
